<svg xmlns="http://www.w3.org/2000/svg" height="40.053" width="301.084"><defs><clipPath id="a" clipPathUnits="userSpaceOnUse"><path d="M0 30.04h225.813V0H0z"/></clipPath></defs><path d="M0 17.564l4.659 4.658 4.658-4.658-4.658-4.66zm296.152.014l-4.657 4.657-4.66-4.659 4.657-4.658z" fill="#fff"/><path d="M38.137 17.73h1.697v-6.785h2.67V9.248h-4.367z" fill="#636466"/><g clip-path="url(#a)" transform="matrix(1.33333 0 0 -1.33333 0 40.053)"><path d="M37.706 15.809v7.753c0 1.097-.653 2.032-1.567 2.487.181-.368.293-.776.293-1.213v-7.753a2.73 2.73 0 00-1.016-2.146c.563-.603 1.016-1.28 1.016-2.26V4.06c0-1.505-1.28-2.785-2.786-2.785H25.36V0h9.562c1.505 0 2.785 1.28 2.785 2.786v8.619c0 .978-.45 1.656-1.017 2.259a2.73 2.73 0 011.017 2.145" fill="#636466"/><path d="M28.602 5.828h1.273v5.125h2.002v1.273h-3.275zm20.176 0h1.273V21.83h2.002v1.273h-3.275z" fill="#636466"/><path d="M56.313 26.048c.184-.368.294-.776.294-1.213V4.058c0-1.505-1.279-2.785-2.785-2.785h-6.774c-.438 0-.846.112-1.214.295C46.29.652 47.224 0 48.32 0h6.775C56.6 0 57.88 1.28 57.88 2.785v20.776c0 1.097-.652 2.032-1.567 2.487m12.641-9.305h1.273v5.088h2.001v1.273h-3.274zm7.485-5.526a2.728 2.728 0 011.58 2.484v9.86c0 1.11-.647 2.057-1.568 2.505.183-.372.296-.786.296-1.231v-9.861a2.733 2.733 0 00-1.581-2.484l1.88-11.217H73.59L73.803 0h4.517zm-5.753 1.01h-1.732V1.273h-3.243V0h4.517v10.954h.672zm17.841-6.399h1.274V21.83h2.002v1.273h-3.276z" fill="#636466"/><path d="M96.064 26.048a2.71 2.71 0 00.293-1.213V4.058c0-1.505-1.278-2.785-2.785-2.785h-6.776c-.437 0-.845.112-1.212.294C86.038.652 86.972 0 88.069 0h6.775c1.505 0 2.785 1.28 2.785 2.785v20.776c.002 1.097-.651 2.032-1.565 2.487m12.64-20.22h1.272V21.83h2.002v1.273h-3.274z" fill="#636466"/><path d="M116.24 26.048c.181-.368.293-.776.293-1.213V4.058c0-1.505-1.28-2.785-2.785-2.785h-8.288V0h9.56c1.505 0 2.784 1.28 2.784 2.785v20.776c.001 1.097-.65 2.032-1.565 2.487m12.867.299V1.273h-3.244V0h4.517v26.347zm20.1 0V1.273h-3.61L145.962 0h4.516v26.347zm-7.83-13.556V1.272h-3.242V0h4.514v8.363zm19.719-1.838h3.732v1.272h-5.006a2.75 2.75 0 00-1.222.291 2.774 2.774 0 012.496-1.563m1.729-1.693l-1.27-.297V5.828h1.27zm6.263 16.788c.183-.368.294-.776.294-1.213V19.49l-3.281-.759v-1.568l4.554 1.054v5.344c-.001 1.097-.652 2.032-1.567 2.487" fill="#636466"/><path d="M169.087 15.17c.183-.368.294-.776.294-1.213V4.058c0-1.505-1.28-2.785-2.785-2.785h-6.775c-.437 0-.846.112-1.214.295C159.06.652 159.997 0 161.095 0h6.774c1.506 0 2.784 1.28 2.784 2.785v9.9c0 1.096-.65 2.03-1.566 2.485m-7.534 7.934v-6.361h1.27v5.088h2.004v1.273zm20.59-10.877h-.414V1.273h-3.245V0h4.518v9.489zm9.251 14.12h-1.682l-3.806-11.862 4.216-13.212h-3.67l.35-1.123.039-.15h4.554l-4.215 13.21zm10.623 0V1.273h-3.244V0h4.517v26.347zm19.03-15.396l3.493 3.494 1.274-1.272-3.494-3.494zm-215.132.002l3.494 3.494 1.274-1.273L7.188 9.68z" fill="#636466"/><path d="M29.459 14.645h-3.275V8.247h3.275zm0 10.878h-3.275v-6.361h3.275zm4.554-6.023c0-.865-.376-1.619-1.016-2.146.564-.602 1.016-1.278 1.016-2.256v-8.62c0-1.506-1.281-2.786-2.785-2.786h-9.56V30.04h9.56c1.504 0 2.785-1.243 2.785-2.787zm15.621 6.023h-3.275V8.246h3.275zm1.768 4.517c1.506 0 2.786-1.243 2.786-2.787V6.478c0-1.506-1.28-2.786-2.786-2.786h-6.774c-1.543 0-2.786 1.28-2.786 2.786v20.775a2.781 2.781 0 002.786 2.787zm18.408-4.517h-3.274v-6.361h3.274zm.3-21.831l-1.844 10.953h-1.732V3.692h-4.516V30.04h9.561c1.505 0 2.748-1.243 2.748-2.787v-9.86a2.73 2.73 0 00-1.581-2.484l1.882-11.217zm19.274 21.831h-3.275V8.246h3.275zm1.768 4.517c1.506 0 2.785-1.243 2.785-2.787V6.478c0-1.506-1.279-2.786-2.785-2.786h-6.774c-1.543 0-2.785 1.28-2.785 2.786v20.775a2.78 2.78 0 002.785 2.787zm18.407-4.517h-3.274V8.246h3.274zm1.77 4.517c1.505 0 2.784-1.243 2.784-2.787V6.478c0-1.506-1.278-2.786-2.784-2.786h-9.561V30.04zm10.841 0h4.517V3.693h-4.517zm24.615 0V3.693h-4.517l-3.31 11.517V3.693h-4.519V30.04h4.48l3.311-10.803V30.04zm17.392-10.877c1.504 0 2.785-1.242 2.785-2.785v-9.9c0-1.505-1.281-2.784-2.785-2.784H157.4c-1.544 0-2.785 1.279-2.785 2.785v5.42l4.516 1.055V8.248h3.274v6.398H157.4a2.779 2.779 0 00-2.785 2.786v9.822a2.779 2.779 0 002.785 2.786h6.775c1.504 0 2.785-1.242 2.785-2.786V21.91l-4.555-1.054v4.668h-3.275v-6.361zm19.308-2.259l4.217-13.21h-4.555l-.038.15-3.388 10.802h-.415V3.694h-4.515V30.04h4.515V19.163h.34l3.463 10.877h4.593zm11.596 13.136h4.516V3.693h-4.516z" fill="#fff"/></g></svg>